<svg xmlns="http://www.w3.org/2000/svg" viewBox="0 0 100 100">
    <defs>
        <linearGradient id="lesung" x1="0" y1="0" x2="1" y2="0">
            <stop offset="0" stop-color="#8b5e3c"/>
            <stop offset="0.4" stop-color="#b98357"/>
            <stop offset="1" stop-color="#7a4f30"/>
        </linearGradient>
    </defs>

    <!-- kaki lesung -->
    <path d="M40 84 L60 84 L63 93 Q50 96 37 93 Z"
          fill="#7a4f30" stroke="#4e3019" stroke-width="2.5" stroke-linejoin="round"/>

    <!-- badan lesung -->
    <path d="M16 50 A34 10 0 0 0 84 50 C84 70 74 82 60 86 L40 86 C26 82 16 70 16 50 Z"
          fill="url(#lesung)" stroke="#4e3019" stroke-width="2.5" stroke-linejoin="round"/>

    <!-- bibir lesung dan isi empulur -->
    <ellipse cx="50" cy="50" rx="34" ry="10" fill="#c59366" stroke="#4e3019" stroke-width="2.5"/>
    <ellipse cx="50" cy="50" rx="28.5" ry="7" fill="#6e4428"/>
    <ellipse cx="50" cy="52" rx="24" ry="4.5" fill="#f4ead7"/>
    <g fill="#e4d4b6">
        <circle cx="40" cy="52" r="1.3"/>
        <circle cx="58" cy="51" r="1.1"/>
        <circle cx="64" cy="53" r="1"/>
    </g>

    <!-- alu -->
    <line x1="55" y1="50" x2="77" y2="13" stroke="#4e3019" stroke-width="13" stroke-linecap="round"/>
    <line x1="55" y1="50" x2="77" y2="13" stroke="#b98357" stroke-width="8.5" stroke-linecap="round"/>
    <line x1="58" y1="42" x2="73" y2="17" stroke="#dcae82" stroke-width="2.2" stroke-linecap="round"/>

    <!-- kilau badan -->
    <path d="M24 62 Q28 74 38 80" fill="none" stroke="#ffffff"
          stroke-width="3" stroke-linecap="round" opacity="0.35"/>
</svg>
